<?xml version="1.0" encoding="UTF-8"?>
<!--Generator: Apple Native CoreSVG 341-->
<!DOCTYPE svg
PUBLIC "-//W3C//DTD SVG 1.1//EN"
       "http://www.w3.org/Graphics/SVG/1.1/DTD/svg11.dtd">
<svg version="1.1" xmlns="http://www.w3.org/2000/svg" xmlns:xlink="http://www.w3.org/1999/xlink" viewBox="0 0 3300 2200">
 <!--glyph: "", point size: 100.0, font version: "20.0d10e1", template writer version: "138.0.0"-->
 <style>.monochrome-0 {-sfsymbols-motion-group:0;-sfsymbols-layer-tags:771476e1c88ca86b figure.walk.treadmill}

.multicolor-0:tintColor {-sfsymbols-motion-group:0;-sfsymbols-layer-tags:771476e1c88ca86b figure.walk.treadmill}

.hierarchical-0:primary {-sfsymbols-motion-group:0;-sfsymbols-layer-tags:771476e1c88ca86b figure.walk.treadmill}

.SFSymbolsPreviewWireframe {fill:none;opacity:1.0;stroke:black;stroke-width:0.5}
</style>
 <g id="Notes">
  <rect height="2200" id="artboard" style="fill:white;opacity:1" width="3300" x="0" y="0"/>
  <line style="fill:none;stroke:black;opacity:1;stroke-width:0.5;" x1="263" x2="3036" y1="292" y2="292"/>
  <text style="stroke:none;fill:black;font-family:sans-serif;font-size:13;font-weight:bold;" transform="matrix(1 0 0 1 263 322)">Weight/Scale Variations</text>
  <text style="stroke:none;fill:black;font-family:sans-serif;font-size:13;text-anchor:middle;" transform="matrix(1 0 0 1 559.711 322)">Ultralight</text>
  <text style="stroke:none;fill:black;font-family:sans-serif;font-size:13;text-anchor:middle;" transform="matrix(1 0 0 1 856.422 322)">Thin</text>
  <text style="stroke:none;fill:black;font-family:sans-serif;font-size:13;text-anchor:middle;" transform="matrix(1 0 0 1 1153.13 322)">Light</text>
  <text style="stroke:none;fill:black;font-family:sans-serif;font-size:13;text-anchor:middle;" transform="matrix(1 0 0 1 1449.84 322)">Regular</text>
  <text style="stroke:none;fill:black;font-family:sans-serif;font-size:13;text-anchor:middle;" transform="matrix(1 0 0 1 1746.56 322)">Medium</text>
  <text style="stroke:none;fill:black;font-family:sans-serif;font-size:13;text-anchor:middle;" transform="matrix(1 0 0 1 2043.27 322)">Semibold</text>
  <text style="stroke:none;fill:black;font-family:sans-serif;font-size:13;text-anchor:middle;" transform="matrix(1 0 0 1 2339.98 322)">Bold</text>
  <text style="stroke:none;fill:black;font-family:sans-serif;font-size:13;text-anchor:middle;" transform="matrix(1 0 0 1 2636.69 322)">Heavy</text>
  <text style="stroke:none;fill:black;font-family:sans-serif;font-size:13;text-anchor:middle;" transform="matrix(1 0 0 1 2933.4 322)">Black</text>
  <line style="fill:none;stroke:black;opacity:1;stroke-width:0.5;" x1="263" x2="3036" y1="1903" y2="1903"/>
  <g transform="matrix(0.2 0 0 0.2 263 1933)">
   <path d="m46.2402 4.15039c21.7773 0 39.4531-17.627 39.4531-39.4043s-17.6758-39.4043-39.4531-39.4043c-21.7285 0-39.4043 17.627-39.4043 39.4043s17.6758 39.4043 39.4043 39.4043Zm0-7.42188c-17.6758 0-31.9336-14.3066-31.9336-31.9824s14.2578-31.9824 31.9336-31.9824 31.9824 14.3066 31.9824 31.9824-14.3066 31.9824-31.9824 31.9824Zm-17.9688-31.9824c0 2.14844 1.51367 3.61328 3.75977 3.61328h10.498v10.5957c0 2.19727 1.46484 3.71094 3.61328 3.71094 2.24609 0 3.71094-1.51367 3.71094-3.71094v-10.5957h10.5957c2.19727 0 3.71094-1.46484 3.71094-3.61328 0-2.19727-1.51367-3.71094-3.71094-3.71094h-10.5957v-10.5469c0-2.24609-1.46484-3.75977-3.71094-3.75977-2.14844 0-3.61328 1.51367-3.61328 3.75977v10.5469h-10.498c-2.24609 0-3.75977 1.51367-3.75977 3.71094Z"/>
  </g>
  <g transform="matrix(0.2 0 0 0.2 281.506 1933)">
   <path d="m58.5449 14.5508c27.4902 0 49.8047-22.3145 49.8047-49.8047s-22.3145-49.8047-49.8047-49.8047-49.8047 22.3145-49.8047 49.8047 22.3145 49.8047 49.8047 49.8047Zm0-8.30078c-22.9492 0-41.5039-18.5547-41.5039-41.5039s18.5547-41.5039 41.5039-41.5039 41.5039 18.5547 41.5039 41.5039-18.5547 41.5039-41.5039 41.5039Zm-22.6562-41.5039c0 2.39258 1.66016 4.00391 4.15039 4.00391h14.3555v14.4043c0 2.44141 1.66016 4.15039 4.05273 4.15039 2.44141 0 4.15039-1.66016 4.15039-4.15039v-14.4043h14.4043c2.44141 0 4.15039-1.61133 4.15039-4.00391 0-2.44141-1.70898-4.15039-4.15039-4.15039h-14.4043v-14.3555c0-2.49023-1.70898-4.19922-4.15039-4.19922-2.39258 0-4.05273 1.70898-4.05273 4.19922v14.3555h-14.3555c-2.49023 0-4.15039 1.70898-4.15039 4.15039Z"/>
  </g>
  <g transform="matrix(0.2 0 0 0.2 304.924 1933)">
   <path d="m74.8535 28.3203c35.1074 0 63.623-28.4668 63.623-63.5742s-28.5156-63.623-63.623-63.623-63.5742 28.5156-63.5742 63.623 28.4668 63.5742 63.5742 63.5742Zm0-9.08203c-30.127 0-54.4922-24.3652-54.4922-54.4922s24.3652-54.4922 54.4922-54.4922 54.4922 24.3652 54.4922 54.4922-24.3652 54.4922-54.4922 54.4922Zm-28.8574-54.4922c0 2.58789 1.85547 4.39453 4.58984 4.39453h19.7266v19.7754c0 2.68555 1.85547 4.58984 4.44336 4.58984 2.68555 0 4.54102-1.85547 4.54102-4.58984v-19.7754h19.7754c2.68555 0 4.58984-1.80664 4.58984-4.39453 0-2.73438-1.85547-4.58984-4.58984-4.58984h-19.7754v-19.7266c0-2.73438-1.85547-4.63867-4.54102-4.63867-2.58789 0-4.44336 1.9043-4.44336 4.63867v19.7266h-19.7266c-2.73438 0-4.58984 1.85547-4.58984 4.58984Z"/>
  </g>
  <text style="stroke:none;fill:black;font-family:sans-serif;font-size:13;font-weight:bold;" transform="matrix(1 0 0 1 263 1953)">Design Variations</text>
  <text style="stroke:none;fill:black;font-family:sans-serif;font-size:13;" transform="matrix(1 0 0 1 263 1971)">Symbols are supported in up to nine weights and three scales.</text>
  <text style="stroke:none;fill:black;font-family:sans-serif;font-size:13;" transform="matrix(1 0 0 1 263 1989)">For optimal layout with text and other symbols, vertically align</text>
  <text style="stroke:none;fill:black;font-family:sans-serif;font-size:13;" transform="matrix(1 0 0 1 263 2007)">symbols with the adjacent text.</text>
  <line style="fill:none;stroke:#00AEEF;stroke-width:0.5;opacity:1.0;" x1="776" x2="776" y1="1919" y2="1933"/>
  <g transform="matrix(0.2 0 0 0.2 776 1933)">
   <path d="m16.5527 0.78125c2.58789 0 3.85742-0.976562 4.78516-3.71094l6.29883-17.2363h28.8086l6.29883 17.2363c0.927734 2.73438 2.19727 3.71094 4.73633 3.71094 2.58789 0 4.24805-1.5625 4.24805-4.00391 0-0.830078-0.146484-1.61133-0.537109-2.63672l-22.9004-60.9863c-1.12305-2.97852-3.125-4.49219-6.25-4.49219-3.02734 0-5.07812 1.46484-6.15234 4.44336l-22.9004 61.084c-0.390625 1.02539-0.537109 1.80664-0.537109 2.63672 0 2.44141 1.5625 3.95508 4.10156 3.95508Zm13.4766-28.3691 11.8652-32.8613h0.244141l11.8652 32.8613Z"/>
  </g>
  <line style="fill:none;stroke:#00AEEF;stroke-width:0.5;opacity:1.0;" x1="792.836" x2="792.836" y1="1919" y2="1933"/>
  <text style="stroke:none;fill:black;font-family:sans-serif;font-size:13;font-weight:bold;" transform="matrix(1 0 0 1 776 1953)">Margins</text>
  <text style="stroke:none;fill:black;font-family:sans-serif;font-size:13;" transform="matrix(1 0 0 1 776 1971)">Leading and trailing margins on the left and right side of each symbol</text>
  <text style="stroke:none;fill:black;font-family:sans-serif;font-size:13;" transform="matrix(1 0 0 1 776 1989)">can be adjusted by modifying the x-location of the margin guidelines.</text>
  <text style="stroke:none;fill:black;font-family:sans-serif;font-size:13;" transform="matrix(1 0 0 1 776 2007)">Modifications are automatically applied proportionally to all</text>
  <text style="stroke:none;fill:black;font-family:sans-serif;font-size:13;" transform="matrix(1 0 0 1 776 2025)">scales and weights.</text>
  <g transform="matrix(0.2 0 0 0.2 1289 1933)">
   <path d="m14.209 9.32617 8.49609 8.54492c4.29688 4.3457 9.22852 4.05273 13.8672-1.07422l53.4668-58.9355-4.83398-4.88281-53.0762 58.3984c-1.75781 2.00195-3.41797 2.49023-5.76172 0.146484l-5.85938-5.81055c-2.34375-2.29492-1.80664-4.00391 0.195312-5.81055l57.373-54.0039-4.88281-4.83398-57.959 54.4434c-4.93164 4.58984-5.32227 9.47266-1.02539 13.8184Zm32.0801-90.9668c-2.09961 2.05078-2.24609 4.93164-1.07422 6.88477 1.17188 1.80664 3.4668 2.97852 6.68945 2.14844 7.32422-1.70898 14.9414-2.00195 22.0703 2.68555l-2.92969 7.27539c-1.70898 4.15039-0.830078 7.08008 1.85547 9.81445l11.4746 11.5723c2.44141 2.44141 4.49219 2.53906 7.32422 2.05078l5.32227-0.976562 3.32031 3.36914-0.195312 2.7832c-0.195312 2.49023 0.439453 4.39453 2.88086 6.78711l3.80859 3.71094c2.39258 2.39258 5.46875 2.53906 7.8125 0.195312l14.5508-14.5996c2.34375-2.34375 2.24609-5.32227-0.146484-7.71484l-3.85742-3.80859c-2.39258-2.39258-4.24805-3.17383-6.64062-2.97852l-2.88086 0.244141-3.22266-3.17383 1.2207-5.61523c0.634766-2.83203-0.146484-5.0293-3.07617-7.95898l-10.9863-10.9375c-16.6992-16.6016-38.8672-16.2109-53.3203-1.75781Zm7.4707 1.85547c12.1582-8.88672 28.6133-7.37305 39.7461 3.75977l12.1582 12.0605c1.17188 1.17188 1.36719 2.09961 1.02539 3.80859l-1.61133 7.42188 7.51953 7.42188 4.93164-0.292969c1.26953-0.0488281 1.66016 0.0488281 2.63672 1.02539l2.88086 2.88086-12.207 12.207-2.88086-2.88086c-0.976562-0.976562-1.12305-1.36719-1.07422-2.68555l0.341797-4.88281-7.4707-7.42188-7.61719 1.26953c-1.61133 0.341797-2.34375 0.195312-3.56445-0.976562l-10.0098-10.0098c-1.26953-1.17188-1.41602-2.00195-0.634766-3.85742l4.39453-10.4492c-7.8125-7.27539-17.9688-10.4004-28.125-7.42188-0.78125 0.195312-1.07422-0.439453-0.439453-0.976562Z"/>
  </g>
  <text style="stroke:none;fill:black;font-family:sans-serif;font-size:13;font-weight:bold;" transform="matrix(1 0 0 1 1289 1953)">Exporting</text>
  <text style="stroke:none;fill:black;font-family:sans-serif;font-size:13;" transform="matrix(1 0 0 1 1289 1971)">Symbols should be outlined when exporting to ensure the</text>
  <text style="stroke:none;fill:black;font-family:sans-serif;font-size:13;" transform="matrix(1 0 0 1 1289 1989)">design is preserved when submitting to Xcode.</text>
  <text id="template-version" style="stroke:none;fill:black;font-family:sans-serif;font-size:13;text-anchor:end;" transform="matrix(1 0 0 1 3036 1933)">Template v.6.0</text>
  <text style="stroke:none;fill:black;font-family:sans-serif;font-size:13;text-anchor:end;" transform="matrix(1 0 0 1 3036 1951)">Requires Xcode 16 or greater</text>
  <text id="descriptive-name" style="stroke:none;fill:black;font-family:sans-serif;font-size:13;text-anchor:end;" transform="matrix(1 0 0 1 3036 1969)">Generated from custom.figure.walk.treadmill</text>
  <text style="stroke:none;fill:black;font-family:sans-serif;font-size:13;text-anchor:end;" transform="matrix(1 0 0 1 3036 1987)">Typeset at 100.0 points</text>
  <text style="stroke:none;fill:black;font-family:sans-serif;font-size:13;" transform="matrix(1 0 0 1 263 726)">Small</text>
  <text style="stroke:none;fill:black;font-family:sans-serif;font-size:13;" transform="matrix(1 0 0 1 263 1156)">Medium</text>
  <text style="stroke:none;fill:black;font-family:sans-serif;font-size:13;" transform="matrix(1 0 0 1 263 1586)">Large</text>
 </g>
 <g id="Guides">
  <g id="H-reference" style="fill:#27AAE1;stroke:none;" transform="matrix(1 0 0 1 339 696)">
   <path d="M0.993654 0L3.63775 0L29.3281-67.1323L30.0303-67.1323L30.0303-70.459L28.1226-70.459ZM11.6885-24.4799L46.9815-24.4799L46.2315-26.7285L12.4385-26.7285ZM55.1196 0L57.7637 0L30.6382-70.459L29.4326-70.459L29.4326-67.1323Z"/>
  </g>
  <line id="Baseline-S" style="fill:none;stroke:#27AAE1;opacity:1;stroke-width:0.5;" x1="263" x2="3036" y1="696" y2="696"/>
  <line id="Capline-S" style="fill:none;stroke:#27AAE1;opacity:1;stroke-width:0.5;" x1="263" x2="3036" y1="625.541" y2="625.541"/>
  <g id="H-reference" style="fill:#27AAE1;stroke:none;" transform="matrix(1 0 0 1 339 1126)">
   <path d="M0.993654 0L3.63775 0L29.3281-67.1323L30.0303-67.1323L30.0303-70.459L28.1226-70.459ZM11.6885-24.4799L46.9815-24.4799L46.2315-26.7285L12.4385-26.7285ZM55.1196 0L57.7637 0L30.6382-70.459L29.4326-70.459L29.4326-67.1323Z"/>
  </g>
  <line id="Baseline-M" style="fill:none;stroke:#27AAE1;opacity:1;stroke-width:0.5;" x1="263" x2="3036" y1="1126" y2="1126"/>
  <line id="Capline-M" style="fill:none;stroke:#27AAE1;opacity:1;stroke-width:0.5;" x1="263" x2="3036" y1="1055.54" y2="1055.54"/>
  <g id="H-reference" style="fill:#27AAE1;stroke:none;" transform="matrix(1 0 0 1 339 1556)">
   <path d="M0.993654 0L3.63775 0L29.3281-67.1323L30.0303-67.1323L30.0303-70.459L28.1226-70.459ZM11.6885-24.4799L46.9815-24.4799L46.2315-26.7285L12.4385-26.7285ZM55.1196 0L57.7637 0L30.6382-70.459L29.4326-70.459L29.4326-67.1323Z"/>
  </g>
  <line id="Baseline-L" style="fill:none;stroke:#27AAE1;opacity:1;stroke-width:0.5;" x1="263" x2="3036" y1="1556" y2="1556"/>
  <line id="Capline-L" style="fill:none;stroke:#27AAE1;opacity:1;stroke-width:0.5;" x1="263" x2="3036" y1="1485.54" y2="1485.54"/>
  <line id="right-margin-Black-S" style="fill:none;stroke:#00AEEF;stroke-width:0.5;opacity:1.0;" x1="2991.87" x2="2991.87" y1="600.785" y2="720.121"/>
  <line id="left-margin-Black-S" style="fill:none;stroke:#00AEEF;stroke-width:0.5;opacity:1.0;" x1="2874.93" x2="2874.93" y1="600.785" y2="720.121"/>
  <line id="right-margin-Regular-S" style="fill:none;stroke:#00AEEF;stroke-width:0.5;opacity:1.0;" x1="1506.58" x2="1506.58" y1="600.785" y2="720.121"/>
  <line id="left-margin-Regular-S" style="fill:none;stroke:#00AEEF;stroke-width:0.5;opacity:1.0;" x1="1393.11" x2="1393.11" y1="600.785" y2="720.121"/>
  <line id="right-margin-Ultralight-S" style="fill:none;stroke:#00AEEF;stroke-width:0.5;opacity:1.0;" x1="612.067" x2="612.067" y1="600.785" y2="720.121"/>
  <line id="left-margin-Ultralight-S" style="fill:none;stroke:#00AEEF;stroke-width:0.5;opacity:1.0;" x1="507.355" x2="507.355" y1="600.785" y2="720.121"/>
 </g>
 <g id="Symbols">
  <g id="Black-S" transform="matrix(1 0 0 1 2874.93 696)">
   <path class="monochrome-0 multicolor-0:tintColor hierarchical-0:primary SFSymbolsPreviewWireframe" d="M29.5623-80.4973L31.5714-79.2346L26.6637-73.8268L29.5623-80.4973ZM36.6751-78.0356L38.3175-75.2016L28.8708-71.4791L36.6751-78.0356ZM48.0601-45.0625C48.512-46.0323 49.3499-46.7683 50.3698-47.0918C51.3897-47.4152 52.4985-47.2965 53.4269-46.7643L66.5926-39.2174C67.6296-38.6231 68.9156-38.6768 69.8991-39.3559L82.0922-47.7731C83.1543-48.5065 84.4853-48.7353 85.7314-48.3989C86.9776-48.0625 88.0127-47.1952 88.5615-46.0271L99.64-22.4536C100.578-20.4581 101.125-18.3019 101.252-16.1007L101.63-9.57042C101.695-8.45133 101.922-7.3474 102.303-6.29336L107.524 8.13394C108.001 9.45259 107.76 10.9243 106.887 12.0217L106.4 12.6341C105.825 13.3561 104.879 13.6725 103.986 13.4414L101.494 12.7966C100.602 12.5659 99.8837 11.9049 99.5804 11.035L93.7669-5.63509C93.605-6.09906 93.5079-6.58324 93.4787-7.07373L93.0425-14.3627C93.0301-14.5709 92.8958-14.752 92.7004-14.8246C92.505-14.8972 92.2853-14.8476 92.14-14.6981L85.4508-7.81853C84.271-6.60513 83.9883-4.7783 84.746-3.26492L90.7266 8.68043C91.2066 9.63911 91.2752 10.7519 90.9167 11.7623C90.5582 12.7726 89.8035 13.5934 88.8267 14.035L88.799 14.0477C86.5722 15.0546 83.9466 14.1441 82.8214 11.9747L74.3485-4.35769C73.4349-6.11906 73.766-8.26924 75.1674-9.67399L83.4088-17.9349C84.5822-19.1111 84.8516-20.915 84.0729-22.3824L79.3922-31.2046C78.9815-31.9785 78.2605-32.5408 77.4096-32.7502C76.5589-32.9597 75.6592-32.7965 74.936-32.3016L70.6601-29.3753C69.3036-28.4467 67.5243-28.4162 66.1366-29.2976L49.5979-39.8016C47.8367-40.92 47.1786-43.1714 48.0601-45.0625ZM71.0251-63.9752C76.1728-63.9752 80.3521-59.7959 80.3521-54.6484C80.3521-49.5007 76.1728-45.3216 71.0251-45.3216C65.8777-45.3216 61.6984-49.5007 61.6984-54.6484C61.6984-59.7959 65.8777-63.9752 71.0251-63.9752ZM18.4544-70.5771C23.366-70.5771 27.3538-66.5893 27.3538-61.6776C27.3538-56.766 23.366-52.7782 18.4544-52.7782C13.5427-52.7782 9.55492-56.766 9.55492-61.6776C9.55492-66.5893 13.5427-70.5771 18.4544-70.5771ZM18.6537-50.6354L22.235-51.3619C23.8052-51.6804 25.2748-52.3747 26.5181-53.3851L41.8459-65.8443C42.6299-66.4816 43.6391-66.7727 44.642-66.651C45.6448-66.5293 46.5553-66.0054 47.1641-65.1991L47.1643-65.1987C48.4691-63.471 48.1817-61.0223 46.5126-59.6437L33.5208-48.913C33.2602-48.6978 33.1707-48.3374 33.3006-48.0252L33.3924-47.804C33.4869-47.5769 33.6789-47.4042 33.9146-47.3341C34.1506-47.2642 34.4056-47.3042 34.6087-47.4432L41.7123-52.3006C42.6103-52.9146 43.7197-53.1365 44.7847-52.9148C45.8497-52.6932 46.7785-52.0471 47.3569-51.1259L47.3572-51.1255C48.2769-49.6603 47.946-47.7379 46.5892-46.6647L34.0988-36.7845C33.6612-36.4384 33.446-35.8818 33.5372-35.3311L33.7504-34.0402C34.0391-32.2949 35.2596-30.8474 36.9311-30.2683L46.6479-26.9017C47.3195-26.6691 47.9237-26.2753 48.4076-25.7547L58.4129-14.9945C59.2705-14.072 59.7141-12.8391 59.6402-11.5817C59.5665-10.3243 58.9821-9.1515 58.0224-8.33555L58.022-8.33513C56.36-6.92216 53.8757-7.08678 52.4147-8.70668L45.9213-15.9066C44.2668-17.7411 42.2055-19.1622 39.9027-20.0563L28.9259-24.3177L34.4382-18.2749C36.1252-16.4254 37.1824-14.0884 37.4578-11.6004L39.2354 4.46217C39.3539 5.53242 39.0152 6.60288 38.3028 7.41019C37.5902 8.2173 36.5703 8.68653 35.4937 8.70211L34.9055 8.71053C32.7661 8.74148 30.9641 7.11821 30.7723 4.98698L29.6065-7.96315C29.3932-10.331 28.4186-12.566 26.8286-14.3333L23.8424-17.6518C22.0078-19.6908 20.709-22.1543 20.0629-24.82L15.1432-45.1153C14.8527-46.3146 15.0626-47.5804 15.7246-48.6218C16.3869-49.663 17.4443-50.3899 18.6537-50.6354ZM50.3911-80.9295C51.6407-81.7806 53.3597-82.1288 55.2438-82.3001C56.1158-81.3042 56.998-80.1626 57.9283-78.3284C55.0889-78.9191 52.7012-80.5706 50.3911-80.9295ZM48.8684-79.8984C50.8205-80.0674 52.4703-79.5574 53.9359-78.6336C56.1657-77.4228 57.5254-77.1535 58.3664-77.4459L58.9747-75.9121C52.8073-74.9408 49.7574-72.8799 46.2372-70.9834C45.3455-74.4747 46.4214-77.388 48.8684-79.8984ZM46.6004-70.0415C49.8669-72.5376 54.1687-74.1569 59.3063-75.068L59.6932-73.0308C55.5453-71.2566 55.2162-66.7363 51.8611-64.4975C49.3859-65.4338 47.4024-66.9914 46.6004-70.0415ZM53.0707-64.0434C57.3595-68.7599 56.4113-70.4264 59.7993-72.0372C59.8938-69.5089 59.7246-66.9996 59.0179-64.5288C57.3386-63.7318 55.3508-63.5813 53.0707-64.0434ZM56.6679-82.1869C57.8213-82.0477 58.9027-81.7387 59.8844-81.1935C59.741-80.1432 59.3589-79.3793 58.7863-78.8441C58.3384-79.8908 57.6586-80.9983 56.6679-82.1869ZM59.2791-78.0292C60.017-78.921 60.4231-79.8117 60.6593-80.7019C62.1539-79.6232 63.2882-78.1116 64.0961-76.2085L59.8707-76.1212C59.8298-76.7291 59.6322-77.3653 59.2791-78.0292ZM60.2265-75.1749C61.7299-75.3143 63.1648-75.349 64.554-75.3134C64.7127-72.9803 64.6933-70.8131 63.9222-69.346C62.6812-71.5252 61.5824-72.6039 60.5871-72.8816L60.2265-75.1749ZM60.7999-71.7593C61.743-70.8337 62.6316-69.7752 63.4317-68.5016C62.6594-66.9746 61.5525-65.8578 60.1505-65.1033C60.6258-67.4202 60.7826-69.6163 60.7999-71.7593Z"/>
  </g>
  <g id="Regular-S" transform="matrix(1 0 0 1 1393.11 696)">
   <path class="monochrome-0 multicolor-0:tintColor hierarchical-0:primary SFSymbolsPreviewWireframe" d="M30.7483-77.8116L32.5777-76.6618L28.1089-71.7375L30.7483-77.8116ZM37.2251-75.5699L38.7206-72.9894L30.1186-69.5998L37.2251-75.5699ZM47.5921-45.5451C48.0036-46.4283 48.7665-47.0984 49.6953-47.393C50.624-47.6875 51.6337-47.5794 52.479-47.0948L64.4675-40.2227C65.4118-39.6815 66.5828-39.7304 67.4784-40.3488L78.5812-48.0133C79.5483-48.6812 80.7604-48.8896 81.895-48.5832C83.0298-48.2769 83.9723-47.4872 84.4721-46.4235L94.5599-24.9578C95.4139-23.1408 95.9123-21.1773 96.0283-19.173L96.3724-13.2266C96.4312-12.2076 96.6377-11.2024 96.985-10.2426L101.739 2.89472C102.173 4.09547 101.954 5.43557 101.159 6.43485L100.715 6.99248C100.192 7.64998 99.3307 7.93809 98.5172 7.72761L96.2478 7.14046C95.4356 6.93037 94.7819 6.32847 94.5057 5.5364L89.212-9.64315C89.0646-10.0656 88.9762-10.5065 88.9496-10.9532L88.5524-17.5904C88.5411-17.78 88.4188-17.9449 88.2409-18.011C88.063-18.0771 87.8629-18.0319 87.7306-17.8958L81.6395-11.6314C80.5652-10.5265 80.3078-8.86297 80.9977-7.48491L86.4436 3.39235C86.8807 4.26531 86.9431 5.27858 86.6167 6.19869C86.2902 7.11861 85.603 7.86601 84.7136 8.26818L84.6883 8.27968C82.6606 9.19653 80.2698 8.36747 79.2453 6.39211L71.5299-8.47997C70.698-10.0838 70.9995-12.0418 72.2756-13.3209L79.7801-20.8432C80.8486-21.9142 81.0939-23.5568 80.3849-24.893L76.1226-32.9264C75.7486-33.631 75.0921-34.143 74.3173-34.3338C73.5427-34.5245 72.7234-34.3759 72.0649-33.9253L68.1713-31.2606C66.9361-30.4151 65.3159-30.3873 64.0523-31.1899L48.9924-40.7546C47.3887-41.7731 46.7895-43.8232 47.5921-45.5451ZM68.5037-62.7668C73.1911-62.7668 76.9967-58.9611 76.9967-54.2739C76.9967-49.5865 73.1911-45.7811 68.5037-45.7811C63.8165-45.7811 60.0109-49.5865 60.0109-54.2739C60.0109-58.9611 63.8165-62.7668 68.5037-62.7668ZM20.6335-68.7784C25.1061-68.7784 28.7372-65.1472 28.7372-60.6747C28.7372-56.2022 25.1061-52.571 20.6335-52.571C16.161-52.571 12.5299-56.2022 12.5299-60.6747C12.5299-65.1472 16.161-68.7784 20.6335-68.7784ZM20.8151-50.6198L24.0761-51.2813C25.5059-51.5713 26.8441-52.2035 27.9762-53.1236L41.9336-64.4688C42.6474-65.049 43.5664-65.3141 44.4796-65.2033C45.3928-65.0925 46.2219-64.6154 46.7762-63.8813L46.7764-63.8809C47.9645-62.3077 47.7029-60.0779 46.1829-58.8226L34.3528-49.0514C34.1155-48.8554 34.034-48.5273 34.1523-48.243L34.2359-48.0415C34.3219-47.8347 34.4968-47.6775 34.7115-47.6137C34.9263-47.55 35.1585-47.5865 35.3435-47.713L41.8118-52.136C42.6296-52.6952 43.6398-52.8972 44.6096-52.6954C45.5793-52.4935 46.4251-51.9052 46.9518-51.0664L46.952-51.066C47.7895-49.7319 47.4882-47.9813 46.2527-47.0041L34.8792-38.0073C34.4807-37.6922 34.2847-37.1854 34.3678-36.6839L34.5619-35.5085C34.8247-33.9192 35.9362-32.6011 37.4582-32.0738L46.3062-29.0082C46.9177-28.7964 47.4678-28.4378 47.9085-27.9637L57.0192-18.1657C57.8001-17.3257 58.204-16.203 58.1367-15.058C58.0696-13.913 57.5375-12.8451 56.6636-12.1021L56.6632-12.1018C55.1498-10.8151 52.8877-10.965 51.5574-12.4401L45.6445-18.9963C44.138-20.6667 42.261-21.9608 40.1641-22.7749L30.1688-26.6552L35.1882-21.1528C36.7244-19.4686 37.6871-17.3406 37.9378-15.0751L39.5564-0.448734C39.6643 0.525817 39.3559 1.50056 38.7072 2.23569C38.0584 2.97063 37.1296 3.39791 36.1493 3.41209L35.6137 3.41976C33.6656 3.44794 32.0247 1.96982 31.8501 0.0291487L30.7885-11.763C30.5943-13.9192 29.7068-15.9543 28.259-17.5636L25.5399-20.5854C23.8693-22.4421 22.6865-24.6853 22.0982-27.1126L17.6185-45.5933C17.3539-46.6853 17.545-47.838 18.1479-48.7862C18.751-49.7343 19.7138-50.3962 20.8151-50.6198ZM49.7146-78.2051C50.8525-78.9801 52.4179-79.2972 54.1335-79.4532C54.9275-78.5463 55.7308-77.5068 56.5779-75.8366C53.9924-76.3745 51.8183-77.8783 49.7146-78.2051ZM48.3282-77.2662C50.1057-77.4201 51.608-76.9557 52.9425-76.1145C54.9729-75.0119 56.211-74.7668 56.9768-75.033L57.5308-73.6364C51.9149-72.7519 49.1377-70.8753 45.9322-69.1483C45.1202-72.3275 46.0999-74.9803 48.3282-77.2662ZM46.2629-68.2907C49.2373-70.5636 53.1545-72.038 57.8327-72.8677L58.185-71.0127C54.408-69.3971 54.1084-65.281 51.0532-63.2424C48.7993-64.095 46.9932-65.5133 46.2629-68.2907ZM52.1547-62.8289C56.06-67.1237 55.1966-68.6411 58.2817-70.1079C58.3677-67.8057 58.2136-65.5208 57.5701-63.2709C56.041-62.5452 54.2309-62.4081 52.1547-62.8289ZM55.4303-79.3501C56.4805-79.2234 57.4652-78.942 58.3591-78.4455C58.2286-77.4891 57.8806-76.7935 57.3592-76.3062C56.9513-77.2593 56.3324-78.2678 55.4303-79.3501ZM57.808-75.5642C58.4799-76.3762 58.8496-77.1872 59.0647-77.9979C60.4257-77.0157 61.4585-75.6391 62.1942-73.9063L58.3466-73.8267C58.3094-74.3803 58.1295-74.9596 57.808-75.5642ZM58.6706-72.9651C60.0396-73.092 61.3462-73.1236 62.6112-73.0912C62.7557-70.9667 62.7381-68.9932 62.0359-67.6574C60.9059-69.6417 59.9053-70.624 58.999-70.8768L58.6706-72.9651ZM59.1928-69.8549C60.0515-69.012 60.8607-68.0482 61.5893-66.8885C60.886-65.498 59.878-64.4811 58.6014-63.794C59.0342-65.9038 59.177-67.9035 59.1928-69.8549Z"/>
  </g>
  <g id="Ultralight-S" transform="matrix(1 0 0 1 507.355 696)">
   <path class="monochrome-0 multicolor-0:tintColor hierarchical-0:primary SFSymbolsPreviewWireframe" d="M27.0796-74.3314L28.8143-73.2412L24.577-68.572L27.0796-74.3314ZM33.2209-72.2059L34.639-69.759L26.4825-66.545L33.2209-72.2059ZM43.0509-43.7365C43.4411-44.5738 44.1645-45.2093 45.0451-45.4886C45.9258-45.7678 46.8831-45.6653 47.6846-45.2058L59.0521-38.6897C59.9474-38.1766 61.0578-38.223 61.907-38.8093L72.4347-46.0768C73.3517-46.7101 74.501-46.9076 75.5768-46.6172C76.6528-46.3267 77.5465-45.5779 78.0204-44.5693L87.5857-24.2156C88.3954-22.4927 88.868-20.631 88.978-18.7305L89.3042-13.0921C89.36-12.1259 89.5558-11.1727 89.8851-10.2626L94.3928 2.1941C94.8048 3.33265 94.5965 4.60333 93.8428 5.55085L93.422 6.07959C92.926 6.70303 92.1093 6.97621 91.3379 6.77664L89.1861 6.21991C88.416 6.0207 87.7962 5.44997 87.5343 4.69894L82.5148-9.69427C82.375-10.0949 82.2912-10.5129 82.2659-10.9364L81.8893-17.2299C81.8786-17.4096 81.7626-17.5659 81.594-17.6286C81.4253-17.6913 81.2355-17.6485 81.1101-17.5194L75.3345-11.5795C74.3159-10.5318 74.0718-8.95451 74.726-7.64784L79.8898 2.66595C80.3042 3.49369 80.3635 4.45447 80.0539 5.32692C79.7444 6.19919 79.0928 6.90787 78.2494 7.2892L78.2254 7.30011C76.3028 8.16946 74.0358 7.38335 73.0643 5.51032L65.7487-8.59135C64.9598-10.1121 65.2458-11.9686 66.4557-13.1815L73.5715-20.3141C74.5846-21.3296 74.8172-22.8871 74.1449-24.1542L70.1035-31.7714C69.7489-32.4395 69.1263-32.925 68.3917-33.1059C67.6572-33.2867 66.8803-33.1459 66.256-32.7185L62.5641-30.1919C61.3928-29.3901 59.8566-29.3638 58.6584-30.1248L44.3786-39.1941C42.858-40.1598 42.2898-42.1037 43.0509-43.7365ZM62.8792-60.066C67.3238-60.066 70.9323-56.4575 70.9323-52.0131C70.9323-47.5685 67.3238-43.9602 62.8792-43.9602C58.4348-43.9602 54.8264-47.5685 54.8264-52.0131C54.8264-56.4575 58.4348-60.066 62.8792-60.066ZM17.4889-65.7661C21.7297-65.7661 25.1728-62.3231 25.1728-58.0822C25.1728-53.8414 21.7297-50.3983 17.4889-50.3983C13.248-50.3983 9.80496-53.8414 9.80496-58.0822C9.80496-62.3231 13.248-65.7661 17.4889-65.7661ZM17.661-48.5482L20.7531-49.1755C22.1088-49.4505 23.3777-50.0499 24.4512-50.9223L37.6855-61.6798C38.3624-62.23 39.2337-62.4814 40.0996-62.3763C40.9655-62.2713 41.7516-61.8189 42.2773-61.1227L42.2775-61.1224C43.404-59.6307 43.1559-57.5164 41.7147-56.3261L30.4974-47.061C30.2724-46.8753 30.1952-46.5641 30.3073-46.2946L30.3865-46.1035C30.4682-45.9074 30.6339-45.7584 30.8375-45.6978C31.0412-45.6375 31.2614-45.672 31.4368-45.792L37.5701-49.9859C38.3455-50.5161 39.3033-50.7077 40.2229-50.5163C41.1424-50.3249 41.9443-49.7671 42.4438-48.9717L42.444-48.9713C43.2381-47.7063 42.9523-46.0465 41.7809-45.1198L30.9965-36.5891C30.6187-36.2903 30.4329-35.8097 30.5116-35.3342L30.6957-34.2197C30.9449-32.7127 31.9988-31.4629 33.4419-30.9629L41.8316-28.0562C42.4114-27.8554 42.9331-27.5153 43.3509-27.0658L51.9896-17.7753C52.7301-16.9788 53.1131-15.9143 53.0493-14.8286C52.9857-13.743 52.4811-12.7304 51.6525-12.0259L51.6521-12.0255C50.2171-10.8056 48.0722-10.9477 46.8107-12.3463L41.2042-18.5629C39.7757-20.1467 37.9959-21.3738 36.0077-22.1457L26.5301-25.8251L31.2895-20.6077C32.7462-19.0107 33.659-16.993 33.8967-14.8448L35.4315-0.976153C35.5338-0.0520851 35.2414 0.872164 34.6263 1.56921C34.011 2.26608 33.1304 2.67122 32.2009 2.68468L31.693 2.69195C29.8458 2.71866 28.2899 1.31711 28.1244-0.523025L27.1178-11.7044C26.9337-13.7488 26.0921-15.6785 24.7193-17.2044L22.141-20.0697C20.557-21.8302 19.4355-23.9572 18.8777-26.2588L14.63-43.7821C14.3791-44.8176 14.5603-45.9105 15.132-46.8097C15.7038-47.7086 16.6168-48.3363 17.661-48.5482ZM45.0635-74.7046C46.1424-75.4394 47.6267-75.74 49.2534-75.888C50.0063-75.0281 50.768-74.0424 51.5712-72.4587C49.1196-72.9687 47.0581-74.3947 45.0635-74.7046ZM43.7488-73.8143C45.4343-73.9602 46.8587-73.5198 48.1241-72.7223C50.0493-71.6768 51.2233-71.4443 51.9495-71.6968L52.4748-70.3725C47.1497-69.5338 44.5164-67.7544 41.477-66.1169C40.7071-69.1314 41.636-71.6468 43.7488-73.8143ZM41.7905-65.3037C44.6109-67.4589 48.3252-68.857 52.761-69.6436L53.0951-67.8847C49.5137-66.3529 49.2296-62.4499 46.3327-60.5169C44.1956-61.3254 42.483-62.6702 41.7905-65.3037ZM47.3771-60.1249C51.0801-64.1972 50.2615-65.636 53.1867-67.0268C53.2683-64.8439 53.1222-62.6773 52.512-60.544C51.0621-59.8559 49.3458-59.7259 47.3771-60.1249ZM50.483-75.7902C51.4789-75.6701 52.4126-75.4032 53.2601-74.9325C53.1364-74.0257 52.8065-73.3661 52.3121-72.904C51.9253-73.8077 51.3384-74.764 50.483-75.7902ZM52.7376-72.2004C53.3746-72.9704 53.7253-73.7394 53.9292-74.5081C55.2197-73.5767 56.199-72.2715 56.8966-70.6284L53.2483-70.553C53.2131-71.0779 53.0424-71.6272 52.7376-72.2004ZM53.5555-69.736C54.8536-69.8563 56.0925-69.8863 57.2919-69.8556C57.429-67.8411 57.4123-65.9699 56.7465-64.7032C55.675-66.5848 54.7262-67.5161 53.8669-67.7559L53.5555-69.736ZM54.0506-66.7869C54.8649-65.9877 55.6321-65.0738 56.323-63.9742C55.6561-62.6557 54.7004-61.6914 53.4899-61.04C53.9003-63.0405 54.0357-64.9366 54.0506-66.7869Z"/>
  </g>
 </g>
</svg>
