<?xml version="1.0" encoding="UTF-8"?>
<!--Generator: Apple Native CoreSVG 341-->
<!DOCTYPE svg
PUBLIC "-//W3C//DTD SVG 1.1//EN"
       "http://www.w3.org/Graphics/SVG/1.1/DTD/svg11.dtd">
<svg version="1.1" xmlns="http://www.w3.org/2000/svg" xmlns:xlink="http://www.w3.org/1999/xlink" viewBox="0 0 3300 2200">
 <!--glyph: "", point size: 100.0, font version: "20.0d10e1", template writer version: "138.0.0"-->
 <style>.monochrome-0 {-sfsymbols-motion-group:1;-sfsymbols-layer-tags:2d55114defd67509}
.monochrome-1 {-sfsymbols-motion-group:0;-sfsymbols-layer-tags:2d55114defd67509}

.multicolor-0:tintColor {-sfsymbols-motion-group:1;-sfsymbols-layer-tags:2d55114defd67509}
.multicolor-1:tintColor {-sfsymbols-motion-group:0;-sfsymbols-layer-tags:2d55114defd67509}

.hierarchical-0:secondary {-sfsymbols-motion-group:1;-sfsymbols-layer-tags:2d55114defd67509}
.hierarchical-1:primary {-sfsymbols-motion-group:0;-sfsymbols-layer-tags:2d55114defd67509}

.SFSymbolsPreviewWireframe {fill:none;opacity:1.0;stroke:black;stroke-width:0.5}
</style>
 <g id="Notes">
  <rect height="2200" id="artboard" style="fill:white;opacity:1" width="3300" x="0" y="0"/>
  <line style="fill:none;stroke:black;opacity:1;stroke-width:0.5;" x1="263" x2="3036" y1="292" y2="292"/>
  <text style="stroke:none;fill:black;font-family:sans-serif;font-size:13;font-weight:bold;" transform="matrix(1 0 0 1 263 322)">Weight/Scale Variations</text>
  <text style="stroke:none;fill:black;font-family:sans-serif;font-size:13;text-anchor:middle;" transform="matrix(1 0 0 1 559.711 322)">Ultralight</text>
  <text style="stroke:none;fill:black;font-family:sans-serif;font-size:13;text-anchor:middle;" transform="matrix(1 0 0 1 856.422 322)">Thin</text>
  <text style="stroke:none;fill:black;font-family:sans-serif;font-size:13;text-anchor:middle;" transform="matrix(1 0 0 1 1153.13 322)">Light</text>
  <text style="stroke:none;fill:black;font-family:sans-serif;font-size:13;text-anchor:middle;" transform="matrix(1 0 0 1 1449.84 322)">Regular</text>
  <text style="stroke:none;fill:black;font-family:sans-serif;font-size:13;text-anchor:middle;" transform="matrix(1 0 0 1 1746.56 322)">Medium</text>
  <text style="stroke:none;fill:black;font-family:sans-serif;font-size:13;text-anchor:middle;" transform="matrix(1 0 0 1 2043.27 322)">Semibold</text>
  <text style="stroke:none;fill:black;font-family:sans-serif;font-size:13;text-anchor:middle;" transform="matrix(1 0 0 1 2339.98 322)">Bold</text>
  <text style="stroke:none;fill:black;font-family:sans-serif;font-size:13;text-anchor:middle;" transform="matrix(1 0 0 1 2636.69 322)">Heavy</text>
  <text style="stroke:none;fill:black;font-family:sans-serif;font-size:13;text-anchor:middle;" transform="matrix(1 0 0 1 2933.4 322)">Black</text>
  <line style="fill:none;stroke:black;opacity:1;stroke-width:0.5;" x1="263" x2="3036" y1="1903" y2="1903"/>
  <g transform="matrix(0.2 0 0 0.2 263 1933)">
   <path d="m46.2402 4.15039c21.7773 0 39.4531-17.627 39.4531-39.4043s-17.6758-39.4043-39.4531-39.4043c-21.7285 0-39.4043 17.627-39.4043 39.4043s17.6758 39.4043 39.4043 39.4043Zm0-7.42188c-17.6758 0-31.9336-14.3066-31.9336-31.9824s14.2578-31.9824 31.9336-31.9824 31.9824 14.3066 31.9824 31.9824-14.3066 31.9824-31.9824 31.9824Zm-17.9688-31.9824c0 2.14844 1.51367 3.61328 3.75977 3.61328h10.498v10.5957c0 2.19727 1.46484 3.71094 3.61328 3.71094 2.24609 0 3.71094-1.51367 3.71094-3.71094v-10.5957h10.5957c2.19727 0 3.71094-1.46484 3.71094-3.61328 0-2.19727-1.51367-3.71094-3.71094-3.71094h-10.5957v-10.5469c0-2.24609-1.46484-3.75977-3.71094-3.75977-2.14844 0-3.61328 1.51367-3.61328 3.75977v10.5469h-10.498c-2.24609 0-3.75977 1.51367-3.75977 3.71094Z"/>
  </g>
  <g transform="matrix(0.2 0 0 0.2 281.506 1933)">
   <path d="m58.5449 14.5508c27.4902 0 49.8047-22.3145 49.8047-49.8047s-22.3145-49.8047-49.8047-49.8047-49.8047 22.3145-49.8047 49.8047 22.3145 49.8047 49.8047 49.8047Zm0-8.30078c-22.9492 0-41.5039-18.5547-41.5039-41.5039s18.5547-41.5039 41.5039-41.5039 41.5039 18.5547 41.5039 41.5039-18.5547 41.5039-41.5039 41.5039Zm-22.6562-41.5039c0 2.39258 1.66016 4.00391 4.15039 4.00391h14.3555v14.4043c0 2.44141 1.66016 4.15039 4.05273 4.15039 2.44141 0 4.15039-1.66016 4.15039-4.15039v-14.4043h14.4043c2.44141 0 4.15039-1.61133 4.15039-4.00391 0-2.44141-1.70898-4.15039-4.15039-4.15039h-14.4043v-14.3555c0-2.49023-1.70898-4.19922-4.15039-4.19922-2.39258 0-4.05273 1.70898-4.05273 4.19922v14.3555h-14.3555c-2.49023 0-4.15039 1.70898-4.15039 4.15039Z"/>
  </g>
  <g transform="matrix(0.2 0 0 0.2 304.924 1933)">
   <path d="m74.8535 28.3203c35.1074 0 63.623-28.4668 63.623-63.5742s-28.5156-63.623-63.623-63.623-63.5742 28.5156-63.5742 63.623 28.4668 63.5742 63.5742 63.5742Zm0-9.08203c-30.127 0-54.4922-24.3652-54.4922-54.4922s24.3652-54.4922 54.4922-54.4922 54.4922 24.3652 54.4922 54.4922-24.3652 54.4922-54.4922 54.4922Zm-28.8574-54.4922c0 2.58789 1.85547 4.39453 4.58984 4.39453h19.7266v19.7754c0 2.68555 1.85547 4.58984 4.44336 4.58984 2.68555 0 4.54102-1.85547 4.54102-4.58984v-19.7754h19.7754c2.68555 0 4.58984-1.80664 4.58984-4.39453 0-2.73438-1.85547-4.58984-4.58984-4.58984h-19.7754v-19.7266c0-2.73438-1.85547-4.63867-4.54102-4.63867-2.58789 0-4.44336 1.9043-4.44336 4.63867v19.7266h-19.7266c-2.73438 0-4.58984 1.85547-4.58984 4.58984Z"/>
  </g>
  <text style="stroke:none;fill:black;font-family:sans-serif;font-size:13;font-weight:bold;" transform="matrix(1 0 0 1 263 1953)">Design Variations</text>
  <text style="stroke:none;fill:black;font-family:sans-serif;font-size:13;" transform="matrix(1 0 0 1 263 1971)">Symbols are supported in up to nine weights and three scales.</text>
  <text style="stroke:none;fill:black;font-family:sans-serif;font-size:13;" transform="matrix(1 0 0 1 263 1989)">For optimal layout with text and other symbols, vertically align</text>
  <text style="stroke:none;fill:black;font-family:sans-serif;font-size:13;" transform="matrix(1 0 0 1 263 2007)">symbols with the adjacent text.</text>
  <line style="fill:none;stroke:#00AEEF;stroke-width:0.5;opacity:1.0;" x1="776" x2="776" y1="1919" y2="1933"/>
  <g transform="matrix(0.2 0 0 0.2 776 1933)">
   <path d="m16.5527 0.78125c2.58789 0 3.85742-0.976562 4.78516-3.71094l6.29883-17.2363h28.8086l6.29883 17.2363c0.927734 2.73438 2.19727 3.71094 4.73633 3.71094 2.58789 0 4.24805-1.5625 4.24805-4.00391 0-0.830078-0.146484-1.61133-0.537109-2.63672l-22.9004-60.9863c-1.12305-2.97852-3.125-4.49219-6.25-4.49219-3.02734 0-5.07812 1.46484-6.15234 4.44336l-22.9004 61.084c-0.390625 1.02539-0.537109 1.80664-0.537109 2.63672 0 2.44141 1.5625 3.95508 4.10156 3.95508Zm13.4766-28.3691 11.8652-32.8613h0.244141l11.8652 32.8613Z"/>
  </g>
  <line style="fill:none;stroke:#00AEEF;stroke-width:0.5;opacity:1.0;" x1="792.836" x2="792.836" y1="1919" y2="1933"/>
  <text style="stroke:none;fill:black;font-family:sans-serif;font-size:13;font-weight:bold;" transform="matrix(1 0 0 1 776 1953)">Margins</text>
  <text style="stroke:none;fill:black;font-family:sans-serif;font-size:13;" transform="matrix(1 0 0 1 776 1971)">Leading and trailing margins on the left and right side of each symbol</text>
  <text style="stroke:none;fill:black;font-family:sans-serif;font-size:13;" transform="matrix(1 0 0 1 776 1989)">can be adjusted by modifying the x-location of the margin guidelines.</text>
  <text style="stroke:none;fill:black;font-family:sans-serif;font-size:13;" transform="matrix(1 0 0 1 776 2007)">Modifications are automatically applied proportionally to all</text>
  <text style="stroke:none;fill:black;font-family:sans-serif;font-size:13;" transform="matrix(1 0 0 1 776 2025)">scales and weights.</text>
  <g transform="matrix(0.2 0 0 0.2 1289 1933)">
   <path d="m14.209 9.32617 8.49609 8.54492c4.29688 4.3457 9.22852 4.05273 13.8672-1.07422l53.4668-58.9355-4.83398-4.88281-53.0762 58.3984c-1.75781 2.00195-3.41797 2.49023-5.76172 0.146484l-5.85938-5.81055c-2.34375-2.29492-1.80664-4.00391 0.195312-5.81055l57.373-54.0039-4.88281-4.83398-57.959 54.4434c-4.93164 4.58984-5.32227 9.47266-1.02539 13.8184Zm32.0801-90.9668c-2.09961 2.05078-2.24609 4.93164-1.07422 6.88477 1.17188 1.80664 3.4668 2.97852 6.68945 2.14844 7.32422-1.70898 14.9414-2.00195 22.0703 2.68555l-2.92969 7.27539c-1.70898 4.15039-0.830078 7.08008 1.85547 9.81445l11.4746 11.5723c2.44141 2.44141 4.49219 2.53906 7.32422 2.05078l5.32227-0.976562 3.32031 3.36914-0.195312 2.7832c-0.195312 2.49023 0.439453 4.39453 2.88086 6.78711l3.80859 3.71094c2.39258 2.39258 5.46875 2.53906 7.8125 0.195312l14.5508-14.5996c2.34375-2.34375 2.24609-5.32227-0.146484-7.71484l-3.85742-3.80859c-2.39258-2.39258-4.24805-3.17383-6.64062-2.97852l-2.88086 0.244141-3.22266-3.17383 1.2207-5.61523c0.634766-2.83203-0.146484-5.0293-3.07617-7.95898l-10.9863-10.9375c-16.6992-16.6016-38.8672-16.2109-53.3203-1.75781Zm7.4707 1.85547c12.1582-8.88672 28.6133-7.37305 39.7461 3.75977l12.1582 12.0605c1.17188 1.17188 1.36719 2.09961 1.02539 3.80859l-1.61133 7.42188 7.51953 7.42188 4.93164-0.292969c1.26953-0.0488281 1.66016 0.0488281 2.63672 1.02539l2.88086 2.88086-12.207 12.207-2.88086-2.88086c-0.976562-0.976562-1.12305-1.36719-1.07422-2.68555l0.341797-4.88281-7.4707-7.42188-7.61719 1.26953c-1.61133 0.341797-2.34375 0.195312-3.56445-0.976562l-10.0098-10.0098c-1.26953-1.17188-1.41602-2.00195-0.634766-3.85742l4.39453-10.4492c-7.8125-7.27539-17.9688-10.4004-28.125-7.42188-0.78125 0.195312-1.07422-0.439453-0.439453-0.976562Z"/>
  </g>
  <text style="stroke:none;fill:black;font-family:sans-serif;font-size:13;font-weight:bold;" transform="matrix(1 0 0 1 1289 1953)">Exporting</text>
  <text style="stroke:none;fill:black;font-family:sans-serif;font-size:13;" transform="matrix(1 0 0 1 1289 1971)">Symbols should be outlined when exporting to ensure the</text>
  <text style="stroke:none;fill:black;font-family:sans-serif;font-size:13;" transform="matrix(1 0 0 1 1289 1989)">design is preserved when submitting to Xcode.</text>
  <text id="template-version" style="stroke:none;fill:black;font-family:sans-serif;font-size:13;text-anchor:end;" transform="matrix(1 0 0 1 3036 1933)">Template v.6.0</text>
  <text style="stroke:none;fill:black;font-family:sans-serif;font-size:13;text-anchor:end;" transform="matrix(1 0 0 1 3036 1951)">Requires Xcode 16 or greater</text>
  <text id="descriptive-name" style="stroke:none;fill:black;font-family:sans-serif;font-size:13;text-anchor:end;" transform="matrix(1 0 0 1 3036 1969)">Generated from sun.horizon</text>
  <text style="stroke:none;fill:black;font-family:sans-serif;font-size:13;text-anchor:end;" transform="matrix(1 0 0 1 3036 1987)">Typeset at 100.0 points</text>
  <text style="stroke:none;fill:black;font-family:sans-serif;font-size:13;" transform="matrix(1 0 0 1 263 726)">Small</text>
  <text style="stroke:none;fill:black;font-family:sans-serif;font-size:13;" transform="matrix(1 0 0 1 263 1156)">Medium</text>
  <text style="stroke:none;fill:black;font-family:sans-serif;font-size:13;" transform="matrix(1 0 0 1 263 1586)">Large</text>
 </g>
 <g id="Guides">
  <g id="H-reference" style="fill:#27AAE1;stroke:none;" transform="matrix(1 0 0 1 339 696)">
   <path d="M0.993654 0L3.63775 0L29.3281-67.1323L30.0303-67.1323L30.0303-70.459L28.1226-70.459ZM11.6885-24.4799L46.9815-24.4799L46.2315-26.7285L12.4385-26.7285ZM55.1196 0L57.7637 0L30.6382-70.459L29.4326-70.459L29.4326-67.1323Z"/>
  </g>
  <line id="Baseline-S" style="fill:none;stroke:#27AAE1;opacity:1;stroke-width:0.5;" x1="263" x2="3036" y1="696" y2="696"/>
  <line id="Capline-S" style="fill:none;stroke:#27AAE1;opacity:1;stroke-width:0.5;" x1="263" x2="3036" y1="625.541" y2="625.541"/>
  <g id="H-reference" style="fill:#27AAE1;stroke:none;" transform="matrix(1 0 0 1 339 1126)">
   <path d="M0.993654 0L3.63775 0L29.3281-67.1323L30.0303-67.1323L30.0303-70.459L28.1226-70.459ZM11.6885-24.4799L46.9815-24.4799L46.2315-26.7285L12.4385-26.7285ZM55.1196 0L57.7637 0L30.6382-70.459L29.4326-70.459L29.4326-67.1323Z"/>
  </g>
  <line id="Baseline-M" style="fill:none;stroke:#27AAE1;opacity:1;stroke-width:0.5;" x1="263" x2="3036" y1="1126" y2="1126"/>
  <line id="Capline-M" style="fill:none;stroke:#27AAE1;opacity:1;stroke-width:0.5;" x1="263" x2="3036" y1="1055.54" y2="1055.54"/>
  <g id="H-reference" style="fill:#27AAE1;stroke:none;" transform="matrix(1 0 0 1 339 1556)">
   <path d="M0.993654 0L3.63775 0L29.3281-67.1323L30.0303-67.1323L30.0303-70.459L28.1226-70.459ZM11.6885-24.4799L46.9815-24.4799L46.2315-26.7285L12.4385-26.7285ZM55.1196 0L57.7637 0L30.6382-70.459L29.4326-70.459L29.4326-67.1323Z"/>
  </g>
  <line id="Baseline-L" style="fill:none;stroke:#27AAE1;opacity:1;stroke-width:0.5;" x1="263" x2="3036" y1="1556" y2="1556"/>
  <line id="Capline-L" style="fill:none;stroke:#27AAE1;opacity:1;stroke-width:0.5;" x1="263" x2="3036" y1="1485.54" y2="1485.54"/>
  <line id="right-margin-Black-S" style="fill:none;stroke:#00AEEF;stroke-width:0.5;opacity:1.0;" x1="2992.19" x2="2992.19" y1="600.785" y2="720.121"/>
  <line id="left-margin-Black-S" style="fill:none;stroke:#00AEEF;stroke-width:0.5;opacity:1.0;" x1="2874.61" x2="2874.61" y1="600.785" y2="720.121"/>
  <line id="right-margin-Regular-S" style="fill:none;stroke:#00AEEF;stroke-width:0.5;opacity:1.0;" x1="1508.63" x2="1508.63" y1="600.785" y2="720.121"/>
  <line id="left-margin-Regular-S" style="fill:none;stroke:#00AEEF;stroke-width:0.5;opacity:1.0;" x1="1391.06" x2="1391.06" y1="600.785" y2="720.121"/>
  <line id="right-margin-Ultralight-S" style="fill:none;stroke:#00AEEF;stroke-width:0.5;opacity:1.0;" x1="618.5" x2="618.5" y1="600.785" y2="720.121"/>
  <line id="left-margin-Ultralight-S" style="fill:none;stroke:#00AEEF;stroke-width:0.5;opacity:1.0;" x1="500.922" x2="500.922" y1="600.785" y2="720.121"/>
 </g>
 <g id="Symbols">
  <g id="Black-S" transform="matrix(1 0 0 1 2874.61 696)">
   <path class="monochrome-0 multicolor-0:tintColor hierarchical-0:secondary SFSymbolsPreviewWireframe" d="M79.073-27.6525L79.073 12.6365C79.073 13.3255 78.642 13.8565 78.009 13.8565C77.422 13.8565 76.991 13.3255 76.991 12.6365L76.991-20.7425C73.45-17.3955 68.691-15.3405 63.449-15.3405C52.513-15.3405 43.575-24.2335 43.575-35.1665C43.575-46.0995 52.513-54.9925 63.449-54.9925C68.691-54.9925 73.45-52.9375 76.991-49.5905L76.991-82.9695C76.991-83.6585 77.422-84.1895 78.009-84.1895C78.642-84.1895 79.073-83.6585 79.073-82.9695L79.073-39.9345L95.791-39.9345L89.317-24.6565C89.317-24.6565 86.284-22.1165 79.073-27.6525ZM76.991-39.9345L76.991-46.4495C73.791-50.3555 68.907-52.8655 63.449-52.8655C53.691-52.8655 45.751-44.9245 45.751-35.1665C45.751-25.4085 53.691-17.4675 63.449-17.4675C68.907-17.4675 73.791-19.9775 76.991-23.8845L76.991-29.3795C76.309-29.9865 75.595-30.6595 74.849-31.4055C64.581-41.6735 65.795-31.4055 65.795-31.4055L58.43-28.7605L58.43-39.4115L72.889-39.9345L76.991-39.9345Z"/>
   <path class="monochrome-1 multicolor-1:tintColor hierarchical-1:primary SFSymbolsPreviewWireframe" d="M63.54 7.92552C63.54 8.49452 63.018 8.97452 62.473 8.97452C61.882 8.97452 61.406 8.49452 61.406 7.92552L61.406-6.23648C61.406-6.84848 61.882-7.28248 62.473-7.28548C63.018-7.28948 63.54-6.89748 63.54-6.23648L63.54 7.92552ZM43.723-15.4405C44.094-15.0265 44.091-14.3175 43.748-13.9775L33.707-3.93748C33.277-3.45748 32.662-3.50348 32.248-3.96548C31.835-4.38248 31.74-4.99348 32.22-5.42448L42.26-15.4645C42.6-15.8535 43.306-15.8535 43.723-15.4405ZM43.723-54.8935C43.309-54.4765 42.6-54.4795 42.26-54.8685L32.22-64.9085C31.74-65.3395 31.831-65.9545 32.248-66.3675C32.665-66.8265 33.277-66.8755 33.707-66.3965L43.748-56.3555C44.091-56.0155 44.091-55.3105 43.723-54.8935ZM63.54-64.0965C63.54-63.5305 63.018-63.0505 62.473-63.0475C61.882-63.0445 61.406-63.5305 61.406-64.0965L61.406-78.2585C61.406-78.8735 61.882-79.3075 62.473-79.3075C63.018-79.3075 63.54-78.8735 63.54-78.2585L63.54-64.0965ZM35.569-35.1665C35.572-34.6215 35.04-34.0995 34.516-34.0995L20.309-34.0995C19.743-34.0995 19.309-34.6215 19.309-35.1665C19.309-35.7125 19.743-36.2335 20.309-36.2335L34.516-36.2335C35.04-36.2335 35.565-35.7125 35.569-35.1665Z"/>
  </g>
  <g id="Regular-S" transform="matrix(1 0 0 1 1391.06 696)">
   <path class="monochrome-0 multicolor-0:tintColor hierarchical-0:secondary SFSymbolsPreviewWireframe" d="M74.43-25.8286L74.43 14.4604C74.43 15.1494 73.999 15.6804 73.366 15.6804C72.779 15.6804 72.348 15.1494 72.348 14.4604L72.348-18.9186C68.807-15.5716 64.048-13.5166 58.806-13.5166C47.87-13.5166 38.932-22.4096 38.932-33.3426C38.932-44.2756 47.87-53.1686 58.806-53.1686C64.048-53.1686 68.807-51.1136 72.348-47.7666L72.348-81.1456C72.348-81.8346 72.779-82.3656 73.366-82.3656C73.999-82.3656 74.43-81.8346 74.43-81.1456L74.43-38.1106L91.148-38.1106L84.674-22.8326C84.674-22.8326 81.641-20.2926 74.43-25.8286ZM72.348-38.1106L72.348-44.6256C69.148-48.5316 64.264-51.0416 58.806-51.0416C49.048-51.0416 41.108-43.1006 41.108-33.3426C41.108-23.5846 49.048-15.6436 58.806-15.6436C64.264-15.6436 69.148-18.1536 72.348-22.0606L72.348-27.5556C71.666-28.1626 70.952-28.8356 70.206-29.5816C59.938-39.8496 61.152-29.5816 61.152-29.5816L53.787-26.9366L53.787-37.5876L68.246-38.1106L72.348-38.1106Z"/>
   <path class="monochrome-1 multicolor-1:tintColor hierarchical-1:primary SFSymbolsPreviewWireframe" d="M58.897 9.74937C58.897 10.3184 58.375 10.7984 57.83 10.7984C57.239 10.7984 56.763 10.3184 56.763 9.74937L56.763-4.41263C56.763-5.02463 57.239-5.45863 57.83-5.46163C58.375-5.46563 58.897-5.07363 58.897-4.41263L58.897 9.74937ZM39.08-13.6166C39.451-13.2026 39.448-12.4936 39.105-12.1536L29.064-2.11363C28.634-1.63363 28.019-1.67963 27.605-2.14163C27.192-2.55863 27.097-3.16963 27.577-3.60063L37.617-13.6406C37.957-14.0296 38.663-14.0296 39.08-13.6166ZM39.08-53.0696C38.666-52.6526 37.957-52.6556 37.617-53.0446L27.577-63.0846C27.097-63.5156 27.188-64.1306 27.605-64.5436C28.022-65.0026 28.634-65.0516 29.064-64.5726L39.105-54.5316C39.448-54.1916 39.448-53.4866 39.08-53.0696ZM58.897-62.2726C58.897-61.7066 58.375-61.2266 57.83-61.2236C57.239-61.2206 56.763-61.7066 56.763-62.2726L56.763-76.4346C56.763-77.0496 57.239-77.4836 57.83-77.4836C58.375-77.4836 58.897-77.0496 58.897-76.4346L58.897-62.2726ZM30.926-33.3426C30.929-32.7976 30.397-32.2756 29.873-32.2756L15.666-32.2756C15.1-32.2756 14.666-32.7976 14.666-33.3426C14.666-33.8886 15.1-34.4096 15.666-34.4096L29.873-34.4096C30.397-34.4096 30.922-33.8886 30.926-33.3426Z"/>
  </g>
  <g id="Ultralight-S" transform="matrix(1 0 0 1 500.922 696)">
   <path class="monochrome-0 multicolor-0:tintColor hierarchical-0:secondary SFSymbolsPreviewWireframe" d="M88.671-30.647L88.671 9.642C88.671 10.331 88.24 10.862 87.607 10.862C87.02 10.862 86.589 10.331 86.589 9.642L86.589-23.737C83.048-20.39 78.289-18.335 73.047-18.335C62.111-18.335 53.173-27.228 53.173-38.161C53.173-49.094 62.111-57.987 73.047-57.987C78.289-57.987 83.048-55.932 86.589-52.585L86.589-85.964C86.589-86.653 87.02-87.184 87.607-87.184C88.24-87.184 88.671-86.653 88.671-85.964L88.671-42.929L105.389-42.929L98.915-27.651C98.915-27.651 95.882-25.111 88.671-30.647ZM86.589-42.929L86.589-49.444C83.389-53.35 78.505-55.86 73.047-55.86C63.289-55.86 55.349-47.919 55.349-38.161C55.349-28.403 63.289-20.462 73.047-20.462C78.505-20.462 83.389-22.972 86.589-26.879L86.589-32.374C85.907-32.981 85.193-33.654 84.447-34.4C74.179-44.668 75.393-34.4 75.393-34.4L68.028-31.755L68.028-42.406L82.487-42.929L86.589-42.929Z"/>
   <path class="monochrome-1 multicolor-1:tintColor hierarchical-1:primary SFSymbolsPreviewWireframe" d="M73.138 4.931C73.138 5.5 72.616 5.98 72.071 5.98C71.48 5.98 71.004 5.5 71.004 4.931L71.004-9.231C71.004-9.843 71.48-10.277 72.071-10.28C72.616-10.284 73.138-9.892 73.138-9.231L73.138 4.931ZM53.321-18.435C53.692-18.021 53.689-17.312 53.346-16.972L43.305-6.932C42.875-6.452 42.26-6.498 41.846-6.96C41.433-7.377 41.338-7.988 41.818-8.419L51.858-18.459C52.198-18.848 52.904-18.848 53.321-18.435ZM53.321-57.888C52.907-57.471 52.198-57.474 51.858-57.863L41.818-67.903C41.338-68.334 41.429-68.949 41.846-69.362C42.263-69.821 42.875-69.87 43.305-69.391L53.346-59.35C53.689-59.01 53.689-58.305 53.321-57.888ZM73.138-67.091C73.138-66.525 72.616-66.045 72.071-66.042C71.48-66.039 71.004-66.525 71.004-67.091L71.004-81.253C71.004-81.868 71.48-82.302 72.071-82.302C72.616-82.302 73.138-81.868 73.138-81.253L73.138-67.091ZM45.167-38.161C45.17-37.616 44.638-37.094 44.114-37.094L29.907-37.094C29.341-37.094 28.907-37.616 28.907-38.161C28.907-38.707 29.341-39.228 29.907-39.228L44.114-39.228C44.638-39.228 45.163-38.707 45.167-38.161Z"/>
  </g>
 </g>
</svg>
