<?xml version="1.0" encoding="UTF-8"?>
<!--Generator: Apple Native CoreSVG 341-->
<!DOCTYPE svg
PUBLIC "-//W3C//DTD SVG 1.1//EN"
       "http://www.w3.org/Graphics/SVG/1.1/DTD/svg11.dtd">
<svg version="1.1" xmlns="http://www.w3.org/2000/svg" xmlns:xlink="http://www.w3.org/1999/xlink" viewBox="0 0 3300 2200">
 <!--glyph: "", point size: 100.0, font version: "20.0d10e1", template writer version: "138.0.0"-->
 <style>.monochrome-0 {-sfsymbols-motion-group:0;-sfsymbols-always-pulses:true;-sfsymbols-layer-tags:2.circle 309a8c56c90daf5a}

.multicolor-0:tintColor {-sfsymbols-motion-group:0;-sfsymbols-always-pulses:true;-sfsymbols-layer-tags:2.circle 309a8c56c90daf5a}

.hierarchical-0:primary {-sfsymbols-motion-group:0;-sfsymbols-layer-tags:2.circle 309a8c56c90daf5a}

.SFSymbolsPreviewWireframe {fill:none;opacity:1.0;stroke:black;stroke-width:0.5}
</style>
 <g id="Notes">
  <rect height="2200" id="artboard" style="fill:white;opacity:1" width="3300" x="0" y="0"/>
  <line style="fill:none;stroke:black;opacity:1;stroke-width:0.5;" x1="263" x2="3036" y1="292" y2="292"/>
  <text style="stroke:none;fill:black;font-family:sans-serif;font-size:13;font-weight:bold;" transform="matrix(1 0 0 1 263 322)">Weight/Scale Variations</text>
  <text style="stroke:none;fill:black;font-family:sans-serif;font-size:13;text-anchor:middle;" transform="matrix(1 0 0 1 559.711 322)">Ultralight</text>
  <text style="stroke:none;fill:black;font-family:sans-serif;font-size:13;text-anchor:middle;" transform="matrix(1 0 0 1 856.422 322)">Thin</text>
  <text style="stroke:none;fill:black;font-family:sans-serif;font-size:13;text-anchor:middle;" transform="matrix(1 0 0 1 1153.13 322)">Light</text>
  <text style="stroke:none;fill:black;font-family:sans-serif;font-size:13;text-anchor:middle;" transform="matrix(1 0 0 1 1449.84 322)">Regular</text>
  <text style="stroke:none;fill:black;font-family:sans-serif;font-size:13;text-anchor:middle;" transform="matrix(1 0 0 1 1746.56 322)">Medium</text>
  <text style="stroke:none;fill:black;font-family:sans-serif;font-size:13;text-anchor:middle;" transform="matrix(1 0 0 1 2043.27 322)">Semibold</text>
  <text style="stroke:none;fill:black;font-family:sans-serif;font-size:13;text-anchor:middle;" transform="matrix(1 0 0 1 2339.98 322)">Bold</text>
  <text style="stroke:none;fill:black;font-family:sans-serif;font-size:13;text-anchor:middle;" transform="matrix(1 0 0 1 2636.69 322)">Heavy</text>
  <text style="stroke:none;fill:black;font-family:sans-serif;font-size:13;text-anchor:middle;" transform="matrix(1 0 0 1 2933.4 322)">Black</text>
  <line style="fill:none;stroke:black;opacity:1;stroke-width:0.5;" x1="263" x2="3036" y1="1903" y2="1903"/>
  <g transform="matrix(0.2 0 0 0.2 263 1933)">
   <path d="m46.2402 4.15039c21.7773 0 39.4531-17.627 39.4531-39.4043s-17.6758-39.4043-39.4531-39.4043c-21.7285 0-39.4043 17.627-39.4043 39.4043s17.6758 39.4043 39.4043 39.4043Zm0-7.42188c-17.6758 0-31.9336-14.3066-31.9336-31.9824s14.2578-31.9824 31.9336-31.9824 31.9824 14.3066 31.9824 31.9824-14.3066 31.9824-31.9824 31.9824Zm-17.9688-31.9824c0 2.14844 1.51367 3.61328 3.75977 3.61328h10.498v10.5957c0 2.19727 1.46484 3.71094 3.61328 3.71094 2.24609 0 3.71094-1.51367 3.71094-3.71094v-10.5957h10.5957c2.19727 0 3.71094-1.46484 3.71094-3.61328 0-2.19727-1.51367-3.71094-3.71094-3.71094h-10.5957v-10.5469c0-2.24609-1.46484-3.75977-3.71094-3.75977-2.14844 0-3.61328 1.51367-3.61328 3.75977v10.5469h-10.498c-2.24609 0-3.75977 1.51367-3.75977 3.71094Z"/>
  </g>
  <g transform="matrix(0.2 0 0 0.2 281.506 1933)">
   <path d="m58.5449 14.5508c27.4902 0 49.8047-22.3145 49.8047-49.8047s-22.3145-49.8047-49.8047-49.8047-49.8047 22.3145-49.8047 49.8047 22.3145 49.8047 49.8047 49.8047Zm0-8.30078c-22.9492 0-41.5039-18.5547-41.5039-41.5039s18.5547-41.5039 41.5039-41.5039 41.5039 18.5547 41.5039 41.5039-18.5547 41.5039-41.5039 41.5039Zm-22.6562-41.5039c0 2.39258 1.66016 4.00391 4.15039 4.00391h14.3555v14.4043c0 2.44141 1.66016 4.15039 4.05273 4.15039 2.44141 0 4.15039-1.66016 4.15039-4.15039v-14.4043h14.4043c2.44141 0 4.15039-1.61133 4.15039-4.00391 0-2.44141-1.70898-4.15039-4.15039-4.15039h-14.4043v-14.3555c0-2.49023-1.70898-4.19922-4.15039-4.19922-2.39258 0-4.05273 1.70898-4.05273 4.19922v14.3555h-14.3555c-2.49023 0-4.15039 1.70898-4.15039 4.15039Z"/>
  </g>
  <g transform="matrix(0.2 0 0 0.2 304.924 1933)">
   <path d="m74.8535 28.3203c35.1074 0 63.623-28.4668 63.623-63.5742s-28.5156-63.623-63.623-63.623-63.5742 28.5156-63.5742 63.623 28.4668 63.5742 63.5742 63.5742Zm0-9.08203c-30.127 0-54.4922-24.3652-54.4922-54.4922s24.3652-54.4922 54.4922-54.4922 54.4922 24.3652 54.4922 54.4922-24.3652 54.4922-54.4922 54.4922Zm-28.8574-54.4922c0 2.58789 1.85547 4.39453 4.58984 4.39453h19.7266v19.7754c0 2.68555 1.85547 4.58984 4.44336 4.58984 2.68555 0 4.54102-1.85547 4.54102-4.58984v-19.7754h19.7754c2.68555 0 4.58984-1.80664 4.58984-4.39453 0-2.73438-1.85547-4.58984-4.58984-4.58984h-19.7754v-19.7266c0-2.73438-1.85547-4.63867-4.54102-4.63867-2.58789 0-4.44336 1.9043-4.44336 4.63867v19.7266h-19.7266c-2.73438 0-4.58984 1.85547-4.58984 4.58984Z"/>
  </g>
  <text style="stroke:none;fill:black;font-family:sans-serif;font-size:13;font-weight:bold;" transform="matrix(1 0 0 1 263 1953)">Design Variations</text>
  <text style="stroke:none;fill:black;font-family:sans-serif;font-size:13;" transform="matrix(1 0 0 1 263 1971)">Symbols are supported in up to nine weights and three scales.</text>
  <text style="stroke:none;fill:black;font-family:sans-serif;font-size:13;" transform="matrix(1 0 0 1 263 1989)">For optimal layout with text and other symbols, vertically align</text>
  <text style="stroke:none;fill:black;font-family:sans-serif;font-size:13;" transform="matrix(1 0 0 1 263 2007)">symbols with the adjacent text.</text>
  <line style="fill:none;stroke:#00AEEF;stroke-width:0.5;opacity:1.0;" x1="776" x2="776" y1="1919" y2="1933"/>
  <g transform="matrix(0.2 0 0 0.2 776 1933)">
   <path d="m16.5527 0.78125c2.58789 0 3.85742-0.976562 4.78516-3.71094l6.29883-17.2363h28.8086l6.29883 17.2363c0.927734 2.73438 2.19727 3.71094 4.73633 3.71094 2.58789 0 4.24805-1.5625 4.24805-4.00391 0-0.830078-0.146484-1.61133-0.537109-2.63672l-22.9004-60.9863c-1.12305-2.97852-3.125-4.49219-6.25-4.49219-3.02734 0-5.07812 1.46484-6.15234 4.44336l-22.9004 61.084c-0.390625 1.02539-0.537109 1.80664-0.537109 2.63672 0 2.44141 1.5625 3.95508 4.10156 3.95508Zm13.4766-28.3691 11.8652-32.8613h0.244141l11.8652 32.8613Z"/>
  </g>
  <line style="fill:none;stroke:#00AEEF;stroke-width:0.5;opacity:1.0;" x1="792.836" x2="792.836" y1="1919" y2="1933"/>
  <text style="stroke:none;fill:black;font-family:sans-serif;font-size:13;font-weight:bold;" transform="matrix(1 0 0 1 776 1953)">Margins</text>
  <text style="stroke:none;fill:black;font-family:sans-serif;font-size:13;" transform="matrix(1 0 0 1 776 1971)">Leading and trailing margins on the left and right side of each symbol</text>
  <text style="stroke:none;fill:black;font-family:sans-serif;font-size:13;" transform="matrix(1 0 0 1 776 1989)">can be adjusted by modifying the x-location of the margin guidelines.</text>
  <text style="stroke:none;fill:black;font-family:sans-serif;font-size:13;" transform="matrix(1 0 0 1 776 2007)">Modifications are automatically applied proportionally to all</text>
  <text style="stroke:none;fill:black;font-family:sans-serif;font-size:13;" transform="matrix(1 0 0 1 776 2025)">scales and weights.</text>
  <g transform="matrix(0.2 0 0 0.2 1289 1933)">
   <path d="m14.209 9.32617 8.49609 8.54492c4.29688 4.3457 9.22852 4.05273 13.8672-1.07422l53.4668-58.9355-4.83398-4.88281-53.0762 58.3984c-1.75781 2.00195-3.41797 2.49023-5.76172 0.146484l-5.85938-5.81055c-2.34375-2.29492-1.80664-4.00391 0.195312-5.81055l57.373-54.0039-4.88281-4.83398-57.959 54.4434c-4.93164 4.58984-5.32227 9.47266-1.02539 13.8184Zm32.0801-90.9668c-2.09961 2.05078-2.24609 4.93164-1.07422 6.88477 1.17188 1.80664 3.4668 2.97852 6.68945 2.14844 7.32422-1.70898 14.9414-2.00195 22.0703 2.68555l-2.92969 7.27539c-1.70898 4.15039-0.830078 7.08008 1.85547 9.81445l11.4746 11.5723c2.44141 2.44141 4.49219 2.53906 7.32422 2.05078l5.32227-0.976562 3.32031 3.36914-0.195312 2.7832c-0.195312 2.49023 0.439453 4.39453 2.88086 6.78711l3.80859 3.71094c2.39258 2.39258 5.46875 2.53906 7.8125 0.195312l14.5508-14.5996c2.34375-2.34375 2.24609-5.32227-0.146484-7.71484l-3.85742-3.80859c-2.39258-2.39258-4.24805-3.17383-6.64062-2.97852l-2.88086 0.244141-3.22266-3.17383 1.2207-5.61523c0.634766-2.83203-0.146484-5.0293-3.07617-7.95898l-10.9863-10.9375c-16.6992-16.6016-38.8672-16.2109-53.3203-1.75781Zm7.4707 1.85547c12.1582-8.88672 28.6133-7.37305 39.7461 3.75977l12.1582 12.0605c1.17188 1.17188 1.36719 2.09961 1.02539 3.80859l-1.61133 7.42188 7.51953 7.42188 4.93164-0.292969c1.26953-0.0488281 1.66016 0.0488281 2.63672 1.02539l2.88086 2.88086-12.207 12.207-2.88086-2.88086c-0.976562-0.976562-1.12305-1.36719-1.07422-2.68555l0.341797-4.88281-7.4707-7.42188-7.61719 1.26953c-1.61133 0.341797-2.34375 0.195312-3.56445-0.976562l-10.0098-10.0098c-1.26953-1.17188-1.41602-2.00195-0.634766-3.85742l4.39453-10.4492c-7.8125-7.27539-17.9688-10.4004-28.125-7.42188-0.78125 0.195312-1.07422-0.439453-0.439453-0.976562Z"/>
  </g>
  <text style="stroke:none;fill:black;font-family:sans-serif;font-size:13;font-weight:bold;" transform="matrix(1 0 0 1 1289 1953)">Exporting</text>
  <text style="stroke:none;fill:black;font-family:sans-serif;font-size:13;" transform="matrix(1 0 0 1 1289 1971)">Symbols should be outlined when exporting to ensure the</text>
  <text style="stroke:none;fill:black;font-family:sans-serif;font-size:13;" transform="matrix(1 0 0 1 1289 1989)">design is preserved when submitting to Xcode.</text>
  <text id="template-version" style="stroke:none;fill:black;font-family:sans-serif;font-size:13;text-anchor:end;" transform="matrix(1 0 0 1 3036 1933)">Template v.6.0</text>
  <text style="stroke:none;fill:black;font-family:sans-serif;font-size:13;text-anchor:end;" transform="matrix(1 0 0 1 3036 1951)">Requires Xcode 16 or greater</text>
  <text id="descriptive-name" style="stroke:none;fill:black;font-family:sans-serif;font-size:13;text-anchor:end;" transform="matrix(1 0 0 1 3036 1969)">Generated from custom.2.circle</text>
  <text style="stroke:none;fill:black;font-family:sans-serif;font-size:13;text-anchor:end;" transform="matrix(1 0 0 1 3036 1987)">Typeset at 100.0 points</text>
  <text style="stroke:none;fill:black;font-family:sans-serif;font-size:13;" transform="matrix(1 0 0 1 263 726)">Small</text>
  <text style="stroke:none;fill:black;font-family:sans-serif;font-size:13;" transform="matrix(1 0 0 1 263 1156)">Medium</text>
  <text style="stroke:none;fill:black;font-family:sans-serif;font-size:13;" transform="matrix(1 0 0 1 263 1586)">Large</text>
 </g>
 <g id="Guides">
  <g id="H-reference" style="fill:#27AAE1;stroke:none;" transform="matrix(1 0 0 1 339 696)">
   <path d="M0.993654 0L3.63775 0L29.3281-67.1323L30.0303-67.1323L30.0303-70.459L28.1226-70.459ZM11.6885-24.4799L46.9815-24.4799L46.2315-26.7285L12.4385-26.7285ZM55.1196 0L57.7637 0L30.6382-70.459L29.4326-70.459L29.4326-67.1323Z"/>
  </g>
  <line id="Baseline-S" style="fill:none;stroke:#27AAE1;opacity:1;stroke-width:0.5;" x1="263" x2="3036" y1="696" y2="696"/>
  <line id="Capline-S" style="fill:none;stroke:#27AAE1;opacity:1;stroke-width:0.5;" x1="263" x2="3036" y1="625.541" y2="625.541"/>
  <g id="H-reference" style="fill:#27AAE1;stroke:none;" transform="matrix(1 0 0 1 339 1126)">
   <path d="M0.993654 0L3.63775 0L29.3281-67.1323L30.0303-67.1323L30.0303-70.459L28.1226-70.459ZM11.6885-24.4799L46.9815-24.4799L46.2315-26.7285L12.4385-26.7285ZM55.1196 0L57.7637 0L30.6382-70.459L29.4326-70.459L29.4326-67.1323Z"/>
  </g>
  <line id="Baseline-M" style="fill:none;stroke:#27AAE1;opacity:1;stroke-width:0.5;" x1="263" x2="3036" y1="1126" y2="1126"/>
  <line id="Capline-M" style="fill:none;stroke:#27AAE1;opacity:1;stroke-width:0.5;" x1="263" x2="3036" y1="1055.54" y2="1055.54"/>
  <g id="H-reference" style="fill:#27AAE1;stroke:none;" transform="matrix(1 0 0 1 339 1556)">
   <path d="M0.993654 0L3.63775 0L29.3281-67.1323L30.0303-67.1323L30.0303-70.459L28.1226-70.459ZM11.6885-24.4799L46.9815-24.4799L46.2315-26.7285L12.4385-26.7285ZM55.1196 0L57.7637 0L30.6382-70.459L29.4326-70.459L29.4326-67.1323Z"/>
  </g>
  <line id="Baseline-L" style="fill:none;stroke:#27AAE1;opacity:1;stroke-width:0.5;" x1="263" x2="3036" y1="1556" y2="1556"/>
  <line id="Capline-L" style="fill:none;stroke:#27AAE1;opacity:1;stroke-width:0.5;" x1="263" x2="3036" y1="1485.54" y2="1485.54"/>
  <line id="right-margin-Black-S" style="fill:none;stroke:#00AEEF;stroke-width:0.5;opacity:1.0;" x1="2982.23" x2="2982.23" y1="600.785" y2="720.121"/>
  <line id="left-margin-Black-S" style="fill:none;stroke:#00AEEF;stroke-width:0.5;opacity:1.0;" x1="2884.57" x2="2884.57" y1="600.785" y2="720.121"/>
  <line id="right-margin-Regular-S" style="fill:none;stroke:#00AEEF;stroke-width:0.5;opacity:1.0;" x1="1496.11" x2="1496.11" y1="600.785" y2="720.121"/>
  <line id="left-margin-Regular-S" style="fill:none;stroke:#00AEEF;stroke-width:0.5;opacity:1.0;" x1="1403.58" x2="1403.58" y1="600.785" y2="720.121"/>
  <line id="right-margin-Ultralight-S" style="fill:none;stroke:#FF3B30;stroke-width:0.5;opacity:1.0;" x1="603.773" x2="603.773" y1="600.785" y2="720.121"/>
  <line id="left-margin-Ultralight-S" style="fill:none;stroke:#00AEEF;stroke-width:0.5;opacity:1.0;" x1="515.649" x2="515.649" y1="600.785" y2="720.121"/>
 </g>
 <g id="Symbols">
  <g id="Black-S" transform="matrix(1 0 0 1 2884.57 696)">
   <path class="monochrome-0 multicolor-0:tintColor hierarchical-0:primary SFSymbolsPreviewWireframe" d="M40.2494-11.589C31.0093-26.5206 26.2679-41.1366 24.4406-52.4501C27.4474-54.071 30.558-55.3907 33.823-56.4467C35.956-50.2267 41.835-45.4897 48.5605-41.002C42.8976-35.3392 39.3932-27.5181 39.3932-18.8849C39.3932-16.3734 39.69-13.9305 40.2494-11.589ZM50.4032-42.7035C43.776-47.0367 38.0381-51.4371 36.0001-57.1573C41.3429-58.6933 46.9053-59.4856 52.6785-59.4856C61.5313-59.4856 70.1082-57.559 78.2195-54.1085C79.0891-52.3464 79.8283-50.5114 80.4275-48.6168C77.3589-49.6231 74.0806-50.1682 70.6765-50.1682C62.9448-50.1682 55.8652-47.3578 50.4032-42.7035ZM0.24346-33.6377C0.192702-34.601 0.143047-35.561 0.143047-36.4779C0.16953-45.0372 2.87073-53.0029 7.40472-59.6268C11.8549-59.9821 14.1412-53.0614 14.353-49.9398C14.4027-49.5271 14.4027-49.1652 14.4071-48.7569C9.04552-44.6279 3.61775-39.05 0.24346-33.6377ZM16.6581-50.3514C16.2432-54.5543 14.1654-60.7324 8.92966-61.7167C12.6747-66.4912 17.5132-70.425 22.9918-73.1537C21.1513-68.4542 20.9273-61.9572 22.0406-53.7709C20.1924-52.716 18.3518-51.5607 16.6581-50.3514ZM24.1449-54.892C23.186-62.8576 23.4078-68.985 25.6235-74.383C30.3726-76.3471 35.5929-77.4671 41.1244-77.4781C42.1848-77.4781 43.2408-77.4284 44.2505-77.3777C37.4555-74.5739 32.9083-68.9199 32.9083-61.6913C32.9083-60.6298 33.0131-59.6709 33.1709-58.6624C30.0747-57.6616 27.0325-56.3551 24.1449-54.892ZM35.4484-59.3234C35.2972-60.1432 35.2432-60.9211 35.2432-61.6913C35.2244-69.3348 40.6312-74.4194 49.078-76.7123C60.8825-74.3841 70.9237-66.9911 76.8193-56.8219C69.0677-60.0935 60.9487-61.8171 52.6785-61.8171C46.7166-61.8171 40.9247-60.9167 35.4484-59.3234ZM14.449-45.8582C14.3497-32.3412 9.74951-16.4297 15.7047-4.32178C7.70596-10.6831 2.15901-19.8945 0.588833-30.3782C3.99071-35.7353 9.10731-41.5979 14.449-45.8582ZM16.796-47.6667C18.5935-48.9908 20.4451-50.2035 22.397-51.3125C25.0099-35.9748 32.6479-15.4366 48.5616 4.02897C46.2024 4.456 43.7385 4.66786 41.2182 4.66786C33.7822 4.66786 26.7545 2.60996 20.7518-0.940874C10.4502-12.9473 17.0035-31.6361 16.796-47.6667ZM70.3598 8.32242C55.5187 8.32242 43.4747-3.71931 43.4747-18.5627C43.4747-33.4049 55.5187-45.4466 70.3598-45.4466C85.2021-45.4466 97.246-33.4049 97.246-18.5627C97.246-3.71931 85.2021 8.32242 70.3598 8.32242ZM70.3598 6.70038C84.3381 6.70038 95.6217-4.5833 95.6217-18.5627C95.6217-32.542 84.3381-43.8257 70.3598-43.8257C56.3805-43.8257 45.0659-32.542 45.0659-18.5627C45.0659-4.5833 56.3805 6.70038 70.3598 6.70038ZM64.3064-6.36644C63.7514-6.36644 63.3994-6.71623 63.3994-7.26132C63.3994-7.53608 63.4843-7.74352 63.7183-8.01276L73.3115-18.6598C75.419-20.9383 76.304-22.6641 76.304-24.6734C76.304-27.6748 74.1545-29.5804 70.7372-29.5804C67.4081-29.5804 64.9938-27.5247 64.7378-24.7032C64.665-24.2177 64.4311-23.9386 63.8959-23.9386C63.4181-23.9386 63.0992-24.2883 63.0992-24.7981C63.0992-25.0552 63.1346-25.2792 63.1743-25.5385C63.6068-28.8356 66.9017-31.1351 70.7195-31.1351C75.1244-31.1351 77.9569-28.5741 77.9569-24.6679C77.9569-22.3419 76.9109-20.3822 74.0232-17.19L65.785-8.07565L65.785-7.9289L78.2913-7.9289C78.736-7.9289 79.0604-7.61552 79.0604-7.13222C79.0604-6.71623 78.736-6.36644 78.2913-6.36644L64.3064-6.36644Z"/>
  </g>
  <g id="Regular-S" transform="matrix(1 0 0 1 1403.58 696)">
   <path class="monochrome-0 multicolor-0:tintColor hierarchical-0:primary SFSymbolsPreviewWireframe" d="M38.4177-12.8666C29.7461-26.8795 25.2964-40.5963 23.5815-51.2136C26.4034-52.7349 29.3226-53.9734 32.3867-54.9644C34.3884-49.127 39.9058-44.6815 46.2174-40.4699C40.903-35.1555 37.6141-27.8156 37.6141-19.7136C37.6141-17.3567 37.8927-15.064 38.4177-12.8666ZM47.9468-42.0667C41.7273-46.1333 36.3425-50.263 34.4299-55.6313C39.4439-57.0727 44.6641-57.8162 50.082-57.8162C58.3902-57.8162 66.4394-56.0082 74.0517-52.7701C74.8677-51.1163 75.5615-49.3942 76.1238-47.6162C73.244-48.5606 70.1674-49.0721 66.9727-49.0721C59.7167-49.0721 53.0727-46.4346 47.9468-42.0667ZM0.873186-33.5587C0.825551-34.4627 0.778951-35.3637 0.778951-36.2242C0.803804-44.2569 3.33881-51.7324 7.59384-57.9488C11.7702-58.2822 13.9158-51.7873 14.1146-48.8578C14.1612-48.4705 14.1612-48.1308 14.1654-47.7477C9.13369-43.8727 4.03987-38.638 0.873186-33.5587ZM16.2779-49.244C15.8885-53.1884 13.9386-58.9864 9.02496-59.9101C12.5396-64.3909 17.0804-68.0826 22.2219-70.6435C20.4946-66.2331 20.2844-60.1359 21.3292-52.4532C19.5947-51.4632 17.8674-50.379 16.2779-49.244ZM23.304-53.5053C22.4041-60.9809 22.6123-66.7312 24.6916-71.7971C29.1486-73.6403 34.0477-74.6914 39.2389-74.7018C40.2341-74.7018 41.2251-74.6552 42.1726-74.6075C35.7957-71.9762 31.5283-66.6701 31.5283-59.8863C31.5283-58.8901 31.6267-57.9902 31.7747-57.0437C28.869-56.1045 26.014-54.8784 23.304-53.5053ZM33.9121-57.664C33.7702-58.4334 33.7195-59.1635 33.7195-59.8863C33.7019-67.0595 38.776-71.8312 46.7031-73.9831C57.7813-71.7981 67.2047-64.86 72.7376-55.3165C65.4629-58.3868 57.8434-60.0043 50.082-60.0043C44.487-60.0043 39.0515-59.1593 33.9121-57.664ZM14.2047-45.0273C14.1115-32.342 9.79436-17.4095 15.3832-6.0465C7.87654-12.0164 2.67088-20.6611 1.19731-30.4997C4.38988-35.5273 9.19168-41.0291 14.2047-45.0273ZM16.4073-46.7246C18.0942-47.9672 19.8319-49.1053 21.6637-50.146C24.1159-35.752 31.2839-16.4775 46.2184 1.79047C44.0045 2.19123 41.6921 2.39005 39.3269 2.39005C32.3484 2.39005 25.7531 0.458767 20.1197-2.8736C10.4519-14.1413 16.602-31.6803 16.4073-46.7246ZM66.6755 5.81976C52.7475 5.81976 41.4446-5.48109 41.4446-19.4112C41.4446-33.3402 52.7475-44.6411 66.6755-44.6411C80.6046-44.6411 91.9075-33.3402 91.9075-19.4112C91.9075-5.48109 80.6046 5.81976 66.6755 5.81976ZM66.6755 4.29751C79.7938 4.29751 90.3832-6.29192 90.3832-19.4112C90.3832-32.5304 79.7938-43.1199 66.6755-43.1199C53.5563-43.1199 42.9379-32.5304 42.9379-19.4112C42.9379-6.29192 53.5563 4.29751 66.6755 4.29751ZM60.9946-7.96535C60.4737-7.96535 60.1434-8.29362 60.1434-8.80517C60.1434-9.06302 60.2231-9.2577 60.4426-9.51038L69.4456-19.5023C71.4235-21.6407 72.254-23.2603 72.254-25.146C72.254-27.9627 70.2368-29.751 67.0297-29.751C63.9055-29.751 61.6397-27.8218 61.3995-25.174C61.3311-24.7183 61.1116-24.4563 60.6093-24.4563C60.161-24.4563 59.8617-24.7846 59.8617-25.263C59.8617-25.5043 59.8948-25.7145 59.9321-25.9579C60.338-29.0521 63.4302-31.2101 67.0131-31.2101C71.147-31.2101 73.8052-28.8066 73.8052-25.1408C73.8052-22.9579 72.8235-21.1188 70.1135-18.123L62.3822-9.5694L62.3822-9.43168L74.119-9.43168C74.5363-9.43168 74.8408-9.13758 74.8408-8.68402C74.8408-8.29362 74.5363-7.96535 74.119-7.96535L60.9946-7.96535Z"/>
  </g>
  <g id="Ultralight-S" transform="matrix(1 0 0 1 515.649 696)">
   <path class="monochrome-0 multicolor-0:tintColor hierarchical-0:primary SFSymbolsPreviewWireframe" d="M36.506-12.762C28.132-26.294 23.835-39.54 22.179-49.793C24.904-51.262 27.723-52.458 30.682-53.415C32.615-47.778 37.943-43.485 44.038-39.418C38.906-34.286 35.73-27.198 35.73-19.374C35.73-17.098 35.999-14.884 36.506-12.762ZM45.708-40.96C39.702-44.887 34.502-48.875 32.655-54.059C37.497-55.451 42.538-56.169 47.77-56.169C55.793-56.169 63.566-54.423 70.917-51.296C71.705-49.699 72.375-48.036 72.918-46.319C70.137-47.231 67.166-47.725 64.081-47.725C57.074-47.725 50.658-45.178 45.708-40.96ZM0.25-32.744C0.204-33.617 0.159-34.487 0.159-35.318C0.183-43.075 2.631-50.294 6.74-56.297C10.773-56.619 12.845-50.347 13.037-47.518C13.082-47.144 13.082-46.816 13.086-46.446C8.227-42.704 3.308-37.649 0.25-32.744ZM15.126-47.891C14.75-51.7 12.867-57.299 8.122-58.191C11.516-62.518 15.901-66.083 20.866-68.556C19.198-64.297 18.995-58.409 20.004-50.99C18.329-50.034 16.661-48.987 15.126-47.891ZM21.911-52.006C21.042-59.225 21.243-64.778 23.251-69.67C27.555-71.45 32.286-72.465 37.299-72.475C38.26-72.475 39.217-72.43 40.132-72.384C33.974-69.843 29.853-64.719 29.853-58.168C29.853-57.206 29.948-56.337 30.091-55.423C27.285-54.516 24.528-53.332 21.911-52.006ZM32.155-56.022C32.018-56.765 31.969-57.47 31.969-58.168C31.952-65.095 36.852-69.703 44.507-71.781C55.205-69.671 64.305-62.971 69.648-53.755C62.623-56.72 55.265-58.282 47.77-58.282C42.367-58.282 37.118-57.466 32.155-56.022ZM13.124-43.819C13.034-31.569 8.865-17.149 14.262-6.176C7.013-11.941 1.986-20.289 0.563-29.79C3.646-34.645 8.283-39.958 13.124-43.819ZM15.251-45.458C16.88-46.658 18.558-47.757 20.327-48.762C22.695-34.862 29.617-16.249 44.039 1.392C41.901 1.779 39.668 1.971 37.384 1.971C30.645 1.971 24.276 0.106 18.836-3.112C9.5-13.993 15.439-30.93 15.251-45.458ZM63.794 5.283C50.344 5.283 39.429-5.63 39.429-19.082C39.429-32.533 50.344-43.446 63.794-43.446C77.245-43.446 88.16-32.533 88.16-19.082C88.16-5.63 77.245 5.283 63.794 5.283ZM63.794 3.813C76.462 3.813 86.688-6.413 86.688-19.082C86.688-31.751 76.462-41.977 63.794-41.977C51.125-41.977 40.871-31.751 40.871-19.082C40.871-6.413 51.125 3.813 63.794 3.813ZM58.308-8.029C57.805-8.029 57.486-8.346 57.486-8.84C57.486-9.089 57.563-9.277 57.775-9.521L66.469-19.17C68.379-21.235 69.181-22.799 69.181-24.62C69.181-27.34 67.233-29.067 64.136-29.067C61.119-29.067 58.931-27.204 58.699-24.647C58.633-24.207 58.421-23.954 57.936-23.954C57.503-23.954 57.214-24.271 57.214-24.733C57.214-24.966 57.246-25.169 57.282-25.404C57.674-28.392 60.66-30.476 64.12-30.476C68.112-30.476 70.679-28.155 70.679-24.615C70.679-22.507 69.731-20.731 67.114-17.838L59.648-9.578L59.648-9.445L70.982-9.445C71.385-9.445 71.679-9.161 71.679-8.723C71.679-8.346 71.385-8.029 70.982-8.029L58.308-8.029Z"/>
  </g>
 </g>
</svg>
